<?xml version="1.0" encoding="utf-8"?>
<!DOCTYPE svg PUBLIC "-//W3C//DTD SVG 20010904//EN" "http://www.w3.org/TR/2001/REC-SVG-20010904/DTD/svg10.dtd">
<svg version="1.0" xmlns="http://www.w3.org/2000/svg" width="284pt" height="284pt" viewBox="0 0 284 284" style="" preserveAspectRatio="xMidYMid meet">
<g fill="#000000FF" stroke="#000000FF">
<path d="M 77.822 71.771 C 42.798 90.872 14.448 106.789 14.822 107.143 C 16.512 108.744 140.864 175.998 142.104 175.981 C 142.872 175.971 166.900 163.185 195.500 147.567 L 247.500 119.172 247.761 159.586 L 248.022 200.000 259.521 200.000 L 271.020 200.000 270.760 153.424 L 270.500 106.848 206.500 71.947 C 171.300 52.751 142.275 37.044 142.000 37.043 C 141.725 37.042 112.845 52.669 77.822 71.771 "/></g>
<g fill="#000000FF" stroke="#000000FF">
<path d="M 60.007 179.750 L 60.014 202.500 101.007 224.838 L 142.000 247.175 182.993 224.838 L 223.986 202.500 223.993 179.750 C 223.997 167.238 223.820 157.000 223.600 157.000 C 223.380 157.000 206.617 166.046 186.350 177.101 C 166.082 188.157 147.768 198.089 145.650 199.173 L 141.800 201.142 101.316 179.071 C 79.049 166.932 60.644 157.000 60.416 157.000 C 60.187 157.000 60.003 167.238 60.007 179.750 "/></g>
<g fill="#00000052" stroke="#00000052">
<path d="M 247.022 160.750 L 247.544 201.500 247.772 160.750 C 247.897 138.338 247.663 120.000 247.250 120.000 C 246.838 119.999 246.735 138.337 247.022 160.750 "/></g>
<g fill="#00000052" stroke="#00000052">
<path d="M 224.180 180.000 C 224.008 193.475 224.130 203.815 224.453 202.978 C 224.775 202.141 224.916 191.116 224.766 178.478 L 224.494 155.500 224.180 180.000 "/></g>
<g fill="#00000052" stroke="#00000052">
<path d="M 59.215 179.191 C 59.097 192.221 59.338 203.091 59.750 203.347 C 60.163 203.603 60.259 192.942 59.965 179.656 L 59.430 155.500 59.215 179.191 "/></g>
<g fill="#00000001" stroke="#00000001">
<path d="M 139.654 177.250 C 140.227 178.177 143.429 178.238 144.328 177.339 C 144.692 176.975 143.685 176.637 142.090 176.589 C 140.495 176.540 139.399 176.838 139.654 177.250 "/></g>
<g fill="#00000001" stroke="#00000001">
<path d="M 127.417 240.865 C 127.778 241.450 128.845 242.058 129.787 242.215 C 130.868 242.395 130.626 242.002 129.129 241.150 C 127.825 240.408 127.055 240.279 127.417 240.865 "/></g>
<g fill="#00000001" stroke="#00000001">
<path d="M 165.828 235.649 L 164.500 236.798 165.828 235.649 L 167.156 234.500 165.828 235.649 "/></g>
<g fill="#00000001" stroke="#00000001">
<path d="M 116.417 234.865 C 116.778 235.450 117.845 236.058 118.787 236.215 C 119.868 236.395 119.626 236.002 118.129 235.150 C 116.825 234.408 116.055 234.279 116.417 234.865 "/></g>
<g fill="#00000001" stroke="#00000001">
<path d="M 176.828 229.649 L 175.500 230.798 176.828 229.649 L 178.156 228.500 176.828 229.649 "/></g>
<g fill="#00000001" stroke="#00000001">
<path d="M 105.417 228.865 C 105.778 229.450 106.845 230.058 107.787 230.215 C 108.868 230.395 108.626 230.002 107.129 229.150 C 105.825 228.408 105.055 228.279 105.417 228.865 "/></g>
<g fill="#00000001" stroke="#00000001">
<path d="M 187.828 223.649 L 186.500 224.798 187.828 223.649 L 189.156 222.500 187.828 223.649 "/></g>
<g fill="#00000001" stroke="#00000001">
<path d="M 94.417 222.865 C 94.778 223.450 95.845 224.058 96.787 224.215 C 97.868 224.395 97.626 224.002 96.129 223.150 C 94.825 222.408 94.055 222.279 94.417 222.865 "/></g>
<g fill="#00000001" stroke="#00000001">
<path d="M 198.828 217.649 L 197.500 218.798 198.828 217.649 L 200.156 216.500 198.828 217.649 "/></g>
<g fill="#00000001" stroke="#00000001">
<path d="M 83.417 216.865 C 83.778 217.450 84.845 218.058 85.787 218.215 C 86.868 218.395 86.626 218.002 85.129 217.150 C 83.825 216.408 83.055 216.279 83.417 216.865 "/></g>
<g fill="#00000001" stroke="#00000001">
<path d="M 149.828 195.649 L 148.500 196.798 149.828 195.649 L 151.156 194.500 149.828 195.649 "/></g>
<g fill="#00000001" stroke="#00000001">
<path d="M 132.417 194.865 C 132.778 195.450 133.845 196.058 134.787 196.215 C 135.868 196.395 135.626 196.002 134.129 195.150 C 132.825 194.408 132.055 194.279 132.417 194.865 "/></g>
<g fill="#00000001" stroke="#00000001">
<path d="M 121.417 188.865 C 121.778 189.450 122.845 190.058 123.787 190.215 C 124.868 190.395 124.626 190.002 123.129 189.150 C 121.825 188.408 121.055 188.279 121.417 188.865 "/></g>
<g fill="#00000001" stroke="#00000001">
<path d="M 206.828 164.649 L 205.500 165.798 206.828 164.649 L 208.156 163.500 206.828 164.649 "/></g>
<g fill="#00000001" stroke="#00000001">
<path d="M 166.828 164.649 L 165.500 165.798 166.828 164.649 L 168.156 163.500 166.828 164.649 "/></g>
<g fill="#00000001" stroke="#00000001">
<path d="M 106.417 158.865 C 106.778 159.450 107.845 160.058 108.787 160.215 C 109.868 160.395 109.626 160.002 108.129 159.150 C 106.825 158.408 106.055 158.279 106.417 158.865 "/></g>
<g fill="#00000001" stroke="#00000001">
<path d="M 188.828 152.649 L 187.500 153.798 188.828 152.649 L 190.156 151.500 188.828 152.649 "/></g>
<g fill="#00000001" stroke="#00000001">
<path d="M 197.828 147.649 L 196.500 148.798 197.828 147.649 L 199.156 146.500 197.828 147.649 "/></g>
<g fill="#00000001" stroke="#00000001">
<path d="M 73.417 140.865 C 73.778 141.450 74.845 142.058 75.787 142.215 C 76.868 142.395 76.626 142.002 75.129 141.150 C 73.825 140.408 73.055 140.279 73.417 140.865 "/></g>
<g fill="#00000001" stroke="#00000001">
<path d="M 18.417 110.865 C 18.778 111.450 19.845 112.058 20.787 112.215 C 21.868 112.395 21.626 112.002 20.129 111.150 C 18.825 110.408 18.055 110.279 18.417 110.865 "/></g>
<g fill="#00000001" stroke="#00000001">
<path d="M 219.417 77.865 C 219.778 78.450 220.845 79.058 221.787 79.215 C 222.868 79.395 222.626 79.002 221.129 78.150 C 219.825 77.408 219.055 77.279 219.417 77.865 "/></g>
<g fill="#00000001" stroke="#00000001">
<path d="M 197.417 65.865 C 197.778 66.450 198.845 67.058 199.787 67.215 C 200.868 67.395 200.626 67.002 199.129 66.150 C 197.825 65.408 197.055 65.279 197.417 65.865 "/></g>
<g fill="#00000001" stroke="#00000001">
<path d="M 84.828 66.649 L 83.500 67.798 84.828 66.649 L 86.156 65.500 84.828 66.649 "/></g>
<g fill="#00000001" stroke="#00000001">
<path d="M 186.417 59.865 C 186.778 60.450 187.845 61.058 188.787 61.215 C 189.868 61.395 189.626 61.002 188.129 60.150 C 186.825 59.408 186.055 59.279 186.417 59.865 "/></g>
<g fill="#00000001" stroke="#00000001">
<path d="M 95.828 60.649 L 94.500 61.798 95.828 60.649 L 97.156 59.500 95.828 60.649 "/></g>
<g fill="#00000001" stroke="#00000001">
<path d="M 175.417 53.865 C 175.778 54.450 176.845 55.058 177.787 55.215 C 178.868 55.395 178.626 55.002 177.129 54.150 C 175.825 53.408 175.055 53.279 175.417 53.865 "/></g>
<g fill="#00000001" stroke="#00000001">
<path d="M 106.828 54.649 L 105.500 55.798 106.828 54.649 L 108.156 53.500 106.828 54.649 "/></g>
<g fill="#00000001" stroke="#00000001">
<path d="M 164.417 47.865 C 164.778 48.450 165.845 49.058 166.787 49.215 C 167.868 49.395 167.626 49.002 166.129 48.150 C 164.825 47.408 164.055 47.279 164.417 47.865 "/></g>
<g fill="#00000001" stroke="#00000001">
<path d="M 117.828 48.649 L 116.500 49.798 117.828 48.649 L 119.156 47.500 117.828 48.649 "/></g>
<g fill="#00000001" stroke="#00000001">
<path d="M 144.000 247.047 C 143.010 247.656 142.925 247.975 143.750 247.985 C 144.438 247.993 145.113 247.578 145.250 247.062 C 145.404 246.485 144.924 246.479 144.000 247.047 "/></g>
<g fill="#00000001" stroke="#00000001">
<path d="M 27.422 115.874 C 27.805 116.493 28.654 116.986 29.309 116.970 C 29.964 116.953 29.651 116.446 28.613 115.843 C 27.224 115.037 26.910 115.045 27.422 115.874 "/></g>
<g fill="#00000001" stroke="#00000001">
<path d="M 12.750 105.666 C 12.338 106.033 12.030 106.821 12.066 107.417 C 12.102 108.013 12.439 107.712 12.816 106.750 C 13.192 105.787 13.163 105.300 12.750 105.666 "/></g>
<g fill="#00000001" stroke="#00000001">
<path d="M 267.387 104.157 C 268.776 104.963 269.090 104.955 268.578 104.126 C 268.195 103.507 267.346 103.014 266.691 103.030 C 266.036 103.047 266.349 103.554 267.387 104.157 "/></g>
<g fill="#00000001" stroke="#00000001">
<path d="M 26.422 98.126 C 25.910 98.955 26.224 98.963 27.613 98.157 C 28.651 97.554 28.964 97.047 28.309 97.030 C 27.654 97.014 26.805 97.507 26.422 98.126 "/></g>
<g fill="#00000001" stroke="#00000001">
<path d="M 144.387 37.157 C 145.776 37.963 146.090 37.955 145.578 37.126 C 145.195 36.507 144.346 36.014 143.691 36.030 C 143.036 36.047 143.349 36.554 144.387 37.157 "/></g>
</svg>
