<?xml version="1.0" encoding="utf-8"?>
<!DOCTYPE svg PUBLIC "-//W3C//DTD SVG 20010904//EN" "http://www.w3.org/TR/2001/REC-SVG-20010904/DTD/svg10.dtd">
<svg version="1.0" xmlns="http://www.w3.org/2000/svg" width="258pt" height="258pt" viewBox="0 0 258 258" style="" preserveAspectRatio="xMidYMid meet">
<g fill="#000000FF" stroke="#000000FF">
<path d="M 65.436 31.250 C 67.749 78.827 77.336 121.468 91.192 145.809 C 92.855 148.729 94.014 151.319 93.769 151.564 C 92.840 152.494 80.263 143.478 73.628 137.126 C 55.032 119.323 40.306 90.274 35.580 62.074 C 33.220 47.993 32.764 49.000 41.500 49.000 L 49.000 49.000 49.000 41.000 L 49.000 33.000 32.881 33.000 L 16.762 33.000 17.447 42.750 C 22.224 110.756 58.078 161.999 109.763 174.689 C 118.866 176.924 139.134 176.924 148.237 174.689 C 166.342 170.244 183.292 160.643 196.855 147.151 C 222.850 121.294 237.493 86.309 240.553 42.750 L 241.238 33.000 225.119 33.000 L 209.000 33.000 209.000 41.000 L 209.000 49.000 216.500 49.000 C 225.236 49.000 224.780 47.993 222.420 62.074 C 217.694 90.274 202.968 119.323 184.372 137.126 C 177.737 143.478 165.160 152.494 164.231 151.564 C 163.986 151.319 165.145 148.729 166.808 145.809 C 180.708 121.390 190.248 78.792 192.575 30.750 L 193.241 17.000 128.992 17.000 L 64.744 17.000 65.436 31.250 M 135.000 49.500 L 140.446 65.000 158.898 65.000 L 177.350 65.000 161.274 77.040 L 145.199 89.080 153.052 108.629 C 157.933 120.780 160.360 127.968 159.465 127.625 C 158.673 127.321 151.736 122.331 144.048 116.536 C 136.361 110.741 129.589 106.000 129.000 106.000 C 128.411 106.000 121.639 110.741 113.952 116.536 C 106.264 122.331 99.327 127.321 98.535 127.625 C 97.640 127.968 100.067 120.780 104.948 108.629 L 112.801 89.080 96.726 77.040 L 80.650 65.000 99.102 65.000 L 117.554 65.000 123.000 49.500 C 125.995 40.975 128.695 34.000 129.000 34.000 C 129.305 34.000 132.005 40.975 135.000 49.500 "/></g>
<g fill="#000000FF" stroke="#000000FF">
<path d="M 112.618 197.821 C 110.949 210.401 98.676 219.855 79.162 223.594 C 75.126 224.367 70.289 225.000 68.412 225.000 L 65.000 225.000 65.000 233.000 L 65.000 241.000 129.000 241.000 L 193.000 241.000 193.000 233.000 L 193.000 225.000 189.588 225.000 C 187.711 225.000 182.874 224.367 178.838 223.594 C 159.324 219.855 147.051 210.401 145.382 197.821 L 144.742 193.000 129.000 193.000 L 113.258 193.000 112.618 197.821 "/></g>
<g fill="#00000020" stroke="#00000020">
<path d="M 216.157 49.916 C 220.369 50.237 223.605 50.163 223.348 49.750 C 223.092 49.338 219.646 49.075 215.691 49.166 L 208.500 49.331 216.157 49.916 "/></g>
<g fill="#00000020" stroke="#00000020">
<path d="M 34.652 49.750 C 34.395 50.163 37.631 50.237 41.843 49.916 L 49.500 49.331 42.309 49.166 C 38.354 49.075 34.908 49.338 34.652 49.750 "/></g>
<g fill="#00000020" stroke="#00000020">
<path d="M 198.000 146.961 L 192.500 152.551 198.000 146.961 L 203.500 141.370 198.000 146.961 "/></g>
<g fill="#00000020" stroke="#00000020">
<path d="M 60.000 147.000 L 66.000 153.000 60.000 147.000 L 54.000 141.000 60.000 147.000 "/></g>
<g fill="#00000020" stroke="#00000020">
<path d="M 191.250 224.999 C 192.847 225.480 194.000 225.444 194.000 224.914 C 194.000 224.411 192.763 224.039 191.250 224.086 L 188.500 224.172 191.250 224.999 "/></g>
<g fill="#00000020" stroke="#00000020">
<path d="M 153.000 211.000 L 156.000 214.000 153.000 211.000 L 150.000 208.000 153.000 211.000 "/></g>
<g fill="#00000020" stroke="#00000020">
<path d="M 105.000 210.924 L 102.500 213.566 105.000 210.924 L 107.500 208.282 105.000 210.924 "/></g>
<g fill="#00000020" stroke="#00000020">
<path d="M 186.000 134.924 L 183.500 137.566 186.000 134.924 L 188.500 132.282 186.000 134.924 "/></g>
<g fill="#00000020" stroke="#00000020">
<path d="M 72.000 135.000 L 75.000 138.000 72.000 135.000 L 69.000 132.000 72.000 135.000 "/></g>
<g fill="#000000EF" stroke="#000000EF">
<path d="M 152.000 211.000 L 154.500 213.500 152.000 211.000 L 149.500 208.500 152.000 211.000 "/></g>
<g fill="#00000020" stroke="#00000020">
<path d="M 193.378 126.378 L 192.500 127.256 193.378 126.378 L 194.256 125.500 193.378 126.378 "/></g>
<g fill="#00000020" stroke="#00000020">
<path d="M 64.500 126.500 L 66.000 128.000 64.500 126.500 L 63.000 125.000 64.500 126.500 "/></g>
</svg>
