<?xml version="1.0" standalone="no"?><!DOCTYPE svg PUBLIC "-//W3C//DTD SVG 1.1//EN" "http://www.w3.org/Graphics/SVG/1.1/DTD/svg11.dtd"><svg t="1763563016202" class="icon" viewBox="0 0 1170 1024" version="1.1" xmlns="http://www.w3.org/2000/svg" p-id="7446" xmlns:xlink="http://www.w3.org/1999/xlink" width="228.515625" height="200"><path d="M0 340.993951c0-90.477456 36.937037-177.297779 102.765421-241.370738A355.692698 355.692698 0 0 1 351.084711 0.002926h468.112948C1013.025677 0.002926 1170.282371 153.309916 1170.282371 340.993951V1024H351.084711C157.256694 1024 0 870.693009 0 683.008974V340.993951zM731.426482 512.001463a73.142648 73.142648 0 1 0 146.285296 0 73.142648 73.142648 0 0 0-146.285296 0zM292.570593 512.001463a73.142648 73.142648 0 1 0 146.285296 0 73.142648 73.142648 0 0 0-146.285296 0z" p-id="7447"></path></svg>