<?xml version="1.0" standalone="no"?><!DOCTYPE svg PUBLIC "-//W3C//DTD SVG 1.1//EN" "http://www.w3.org/Graphics/SVG/1.1/DTD/svg11.dtd"><svg t="1763562965019" class="icon" viewBox="0 0 1024 1024" version="1.1" xmlns="http://www.w3.org/2000/svg" p-id="7250" xmlns:xlink="http://www.w3.org/1999/xlink" width="200" height="200"><path d="M938.666667 512c0 235.656533-191.010133 426.666667-426.666667 426.666667H85.333333V512C85.333333 276.343467 276.3776 85.333333 512 85.333333c235.656533 0 426.666667 191.010133 426.666667 426.666667z" p-id="7251" fill="#2c2c2c"></path><path d="M691.4048 87.415467Q605.730133 51.2 512 51.2q-93.696 0-179.370667 36.215467-82.670933 34.986667-146.432 98.747733-63.761067 63.761067-98.747733 146.432Q51.2 418.304 51.2 512v426.666667q0 3.3792 0.682667 6.656 0.648533 3.310933 1.9456 6.417066 1.262933 3.072 3.140266 5.905067 1.877333 2.7648 4.232534 5.154133 2.389333 2.389333 5.188266 4.232534 2.798933 1.877333 5.905067 3.1744 3.072 1.297067 6.382933 1.9456 3.310933 0.648533 6.656 0.648533H512q93.730133 0 179.4048-36.215467 82.670933-34.986667 146.432-98.747733 63.761067-63.761067 98.747733-146.432Q972.8 605.696 972.8 512q0-93.730133-36.181333-179.370667-35.0208-82.705067-98.781867-146.432-63.761067-63.7952-146.432-98.781866z m-332.1856 62.8736Q432.128 119.466667 512 119.466667t152.7808 30.8224q70.4512 29.7984 124.791467 84.138666 54.340267 54.340267 84.138666 124.791467Q904.533333 432.128 904.533333 512t-30.8224 152.7808q-29.7984 70.4512-84.138666 124.791467-54.340267 54.340267-124.791467 84.138666-72.874667 30.8224-152.7808 30.8224H119.466667V512q0-79.872 30.856533-152.7808 29.7984-70.4512 84.138667-124.791467 54.340267-54.340267 124.757333-84.138666z" p-id="7252" fill="#2c2c2c"></path><path d="M298.666667 349.866667H682.666667q3.345067 0 6.656 0.682666 3.2768 0.6144 6.382933 1.911467 3.106133 1.297067 5.905067 3.1744 2.798933 1.8432 5.188266 4.232533 2.389333 2.389333 4.232534 5.154134 1.877333 2.798933 3.140266 5.905066 1.297067 3.106133 1.9456 6.417067 0.682667 3.310933 0.682667 6.656t-0.682667 6.656q-0.648533 3.310933-1.9456 6.417067-1.262933 3.072-3.140266 5.905066-1.877333 2.7648-4.232534 5.154134-2.389333 2.389333-5.188266 4.232533-2.798933 1.877333-5.905067 3.1744-3.072 1.297067-6.382933 1.9456-3.310933 0.648533-6.656 0.648533H298.666667q-3.3792 0-6.690134-0.682666-3.2768-0.6144-6.382933-1.911467-3.106133-1.297067-5.905067-3.1744-2.798933-1.8432-5.188266-4.232533-2.389333-2.389333-4.232534-5.154134-1.877333-2.798933-3.140266-5.905066-1.297067-3.106133-1.9456-6.417067-0.682667-3.310933-0.682667-6.656t0.682667-6.656q0.648533-3.310933 1.9456-6.417067 1.262933-3.072 3.140266-5.905066 1.877333-2.7648 4.232534-5.154134 2.389333-2.389333 5.188266-4.232533 2.798933-1.877333 5.905067-3.1744 3.072-1.297067 6.382933-1.9456 3.310933-0.648533 6.690134-0.648533zM298.666667 520.533333H682.666667q3.345067 0 6.656 0.682667 3.2768 0.6144 6.382933 1.911467 3.106133 1.297067 5.905067 3.1744 2.798933 1.8432 5.188266 4.232533 2.389333 2.389333 4.232534 5.154133 1.877333 2.798933 3.140266 5.905067 1.297067 3.106133 1.9456 6.417067 0.682667 3.310933 0.682667 6.656t-0.682667 6.656q-0.648533 3.310933-1.9456 6.417066-1.262933 3.072-3.140266 5.905067-1.877333 2.7648-4.232534 5.154133-2.389333 2.389333-5.188266 4.232534-2.798933 1.877333-5.905067 3.1744-3.072 1.297067-6.382933 1.9456-3.310933 0.648533-6.656 0.648533H298.666667q-3.3792 0-6.690134-0.682667-3.2768-0.6144-6.382933-1.911466-3.106133-1.297067-5.905067-3.1744-2.798933-1.8432-5.188266-4.232534-2.389333-2.389333-4.232534-5.154133-1.877333-2.798933-3.140266-5.905067-1.297067-3.106133-1.9456-6.417066-0.682667-3.310933-0.682667-6.656t0.682667-6.656q0.648533-3.310933 1.9456-6.417067 1.262933-3.072 3.140266-5.905067 1.877333-2.7648 4.232534-5.154133 2.389333-2.389333 5.188266-4.232533 2.798933-1.877333 5.905067-3.1744 3.072-1.297067 6.382933-1.9456 3.310933-0.648533 6.690134-0.648534z" p-id="7253" fill="#2c2c2c"></path><path d="M298.666667 691.2H512q3.345067 0 6.656 0.682667 3.2768 0.6144 6.382933 1.911466 3.106133 1.297067 5.905067 3.1744 2.798933 1.8432 5.188267 4.232534 2.389333 2.389333 4.232533 5.154133 1.877333 2.798933 3.140267 5.905067 1.297067 3.106133 1.9456 6.417066 0.682667 3.310933 0.682666 6.656t-0.682666 6.656q-0.648533 3.310933-1.9456 6.417067-1.262933 3.072-3.140267 5.905067-1.877333 2.7648-4.232533 5.154133-2.389333 2.389333-5.188267 4.232533-2.798933 1.877333-5.905067 3.1744-3.072 1.297067-6.382933 1.9456-3.310933 0.648533-6.656 0.648534H298.666667q-3.3792 0-6.690134-0.682667-3.2768-0.6144-6.382933-1.911467-3.106133-1.297067-5.905067-3.1744-2.798933-1.8432-5.188266-4.232533-2.389333-2.389333-4.232534-5.154133-1.877333-2.798933-3.140266-5.905067-1.297067-3.106133-1.9456-6.417067-0.682667-3.310933-0.682667-6.656t0.682667-6.656q0.648533-3.310933 1.9456-6.417066 1.262933-3.072 3.140266-5.905067 1.877333-2.7648 4.232534-5.154133 2.389333-2.389333 5.188266-4.232534 2.798933-1.877333 5.905067-3.1744 3.072-1.297067 6.382933-1.9456 3.310933-0.648533 6.690134-0.648533z" p-id="7254" fill="#2c2c2c"></path></svg>