<?xml version="1.0" standalone="no"?><!DOCTYPE svg PUBLIC "-//W3C//DTD SVG 1.1//EN" "http://www.w3.org/Graphics/SVG/1.1/DTD/svg11.dtd"><svg t="1763546493843" class="icon" viewBox="0 0 1024 1024" version="1.1" xmlns="http://www.w3.org/2000/svg" p-id="7306" xmlns:xlink="http://www.w3.org/1999/xlink" width="200" height="200"><path d="M266.56768 699.35104v-97.8944c60.49792 34.65216 148.76672 56.9344 245.43232 56.9344s184.9344-22.28224 245.43232-56.9344v97.64864c-2.82624 20.39808-94.45376 82.04288-245.43232 82.04288s-242.60608-61.6448-245.43232-81.79712z m0-302.40768c60.49792 34.6112 148.76672 56.9344 245.43232 56.9344s184.9344-22.3232 245.43232-56.9344v97.60768c-2.82624 20.43904-94.45376 82.08384-245.43232 82.08384s-242.60608-61.6448-245.43232-81.83808V396.9024zM512 208.4864c150.97856 0 242.60608 61.6448 245.43232 81.55136-2.82624 20.39808-94.45376 82.04288-245.43232 82.04288S269.39392 310.4768 266.56768 290.52928C269.39392 270.1312 361.02144 208.4864 512 208.4864z m327.2704 490.86464V290.28352c0-88.6784-149.87264-163.6352-327.2704-163.6352s-327.2704 74.9568-327.2704 163.6352v409.06752c0 88.6784 149.87264 163.59424 327.2704 163.59424s327.2704-74.9568 327.2704-163.59424z" fill="#2c2c2c" p-id="7307"></path></svg>