<?xml version="1.0" standalone="no"?><!DOCTYPE svg PUBLIC "-//W3C//DTD SVG 1.1//EN" "http://www.w3.org/Graphics/SVG/1.1/DTD/svg11.dtd"><svg t="1763563128411" class="icon" viewBox="0 0 1024 1024" version="1.1" xmlns="http://www.w3.org/2000/svg" p-id="12460" xmlns:xlink="http://www.w3.org/1999/xlink" width="200" height="200"><path d="M853.333333 597.333333c47.217778 0 85.333333 38.115556 85.333334 85.333334v170.666666c0 47.217778-38.115556 85.333333-85.333334 85.333334h-170.666666c-47.217778 0-85.333333-38.115556-85.333334-85.333334v-55.182222h-170.666666V853.333333c0 47.217778-38.115556 85.333333-85.333334 85.333334H170.666667c-47.217778 0-85.333333-38.115556-85.333334-85.333334v-170.666666c0-47.217778 38.115556-85.333333 85.333334-85.333334h106.951111l106.382222-183.751111C358.4 398.222222 342.471111 370.915556 341.333333 341.333333V170.666667c0-47.217778 38.115556-85.333333 85.333334-85.333334h170.666666c47.217778 0 85.333333 38.115556 85.333334 85.333334v170.666666c0 30.151111-16.497778 58.026667-42.666667 72.248889l106.951111 183.751111z m-259.982222 136.533334V682.666667a83.626667 83.626667 0 0 1 76.8-85.333334l-98.417778-170.666666H448.284444l-98.417777 170.666666c43.235556 5.12 76.231111 41.528889 76.8 85.333334v51.2z" p-id="12461" fill="#2c2c2c"></path></svg>