<?xml version="1.0" standalone="no"?><!DOCTYPE svg PUBLIC "-//W3C//DTD SVG 1.1//EN" "http://www.w3.org/Graphics/SVG/1.1/DTD/svg11.dtd"><svg t="1763562867672" class="icon" viewBox="0 0 1024 1024" version="1.1" xmlns="http://www.w3.org/2000/svg" p-id="6157" xmlns:xlink="http://www.w3.org/1999/xlink" width="200" height="200"><path d="M172.9536 244.03456C320.5632 54.34368 593.99168 20.224 783.68256 167.8336c189.69088 147.6096 223.80544 421.03808 76.20096 610.72896-58.0352 74.58304-135.59808 125.1584-219.84256 150.0416a30.72 30.72 0 0 1-17.408-58.92096c72.33536-21.36576 138.87488-64.74752 188.75904-128.85504 126.7712-162.90816 97.46944-397.73696-65.44384-524.50304C583.04 89.5488 348.2112 118.85568 221.44512 281.76384c-126.7712 162.91328-97.46944 397.74208 65.43872 524.50816 46.2336 35.97824 98.18112 59.35104 151.78752 70.70208a30.72 30.72 0 0 1-12.73344 60.1088c-62.51008-13.24032-123.04896-40.50432-176.78336-82.31936C59.46368 707.15904 25.344 433.72544 172.9536 244.03456zM711.68 322.56c42.41408 0 76.8 34.38592 76.8 76.8v198.34368c0 42.41408-34.38592 76.8-76.8 76.8h-65.03936a76.80512 76.80512 0 0 0-47.40608 16.37376l-66.97984 52.55168c-35.5328 27.87328-87.82848 14.41792-105.49248-27.14624a68.61312 68.61312 0 0 0-63.14496-41.7792H317.44c-42.40896 0-76.79488-34.38592-76.8-76.8v-198.3488c0-42.40896 34.39104-76.8 76.8-76.8H711.68zM345.96352 476.16A23.40352 23.40352 0 0 0 322.56 499.5584v4.75648a28.16 28.16 0 0 0 28.16 28.16h37.66784A16.09728 16.09728 0 0 0 404.48 516.38784 40.23296 40.23296 0 0 0 364.24704 476.16h-18.2784z m152.1408 0A21.94432 21.94432 0 0 0 476.16 498.10432V504.32a28.16 28.16 0 0 0 28.16 28.16h32.54784a16.09216 16.09216 0 0 0 16.09216-16.09216A40.23296 40.23296 0 0 0 512.72704 476.16h-14.62272z m149.9392 0A23.40352 23.40352 0 0 0 624.64 499.5584v4.75648a28.16 28.16 0 0 0 28.16 28.16h37.66784a16.09216 16.09216 0 0 0 16.09216-16.09216A40.23296 40.23296 0 0 0 666.32704 476.16h-18.28352z" fill="#2c2c2c" p-id="6158"></path></svg>