<?xml version="1.0" standalone="no"?><!DOCTYPE svg PUBLIC "-//W3C//DTD SVG 1.1//EN" "http://www.w3.org/Graphics/SVG/1.1/DTD/svg11.dtd"><svg t="1763545794300" class="icon" viewBox="0 0 1024 1024" version="1.1" xmlns="http://www.w3.org/2000/svg" p-id="6892" xmlns:xlink="http://www.w3.org/1999/xlink" width="200" height="200"><path d="M931.84 832.4608v-263.8848a14.3872 14.3872 0 0 0-2.7648-10.5472l-188.0064-375.9616a23.7568 23.7568 0 0 0-21.7088-14.4896h-414.72a23.1424 23.1424 0 0 0-21.5552 14.1312L94.9248 558.08a14.3872 14.3872 0 0 0-2.7648 10.5472v263.5264a22.8864 22.8864 0 0 0 21.4016 24.2688h795.4432a22.8352 22.8352 0 0 0 22.8352-21.4528 20.48 20.48 0 0 0 0-2.5088z m-287.5904-287.8976a22.9376 22.9376 0 0 0-24.2688 21.504 20.48 20.48 0 0 0 0 2.5088A107.9296 107.9296 0 0 1 512 676.5056a108.0832 108.0832 0 0 1-107.9808-107.52 22.9376 22.9376 0 0 0-21.4528-24.32H154.5728l164.5568-329.1648h385.7408l164.5568 329.0624z m-113.7152 179.2A154.6752 154.6752 0 0 0 665.6 592.5376h218.5216v215.9616H140.0832v-215.9616H358.4a155.392 155.392 0 0 0 172.1344 130.9696z" fill="#2c2c2c" p-id="6893"></path></svg>